<?xml version="1.0" encoding="UTF-8"?>
<svg version="1.1" xmlns="http://www.w3.org/2000/svg" width="1067" height="1067">
<path d="M0 0 C2.52824953 -0.00418225 5.05649718 -0.00966461 7.58474141 -0.01631981 C13.04136926 -0.02769397 18.49787767 -0.02994434 23.95451164 -0.02376938 C32.06948683 -0.01461106 40.18438354 -0.02276382 48.29935276 -0.03406062 C62.80110618 -0.05365314 77.30282372 -0.05608919 91.80458723 -0.05086542 C104.49898497 -0.04629538 117.19336858 -0.0469234 129.88776588 -0.05270576 C131.59536199 -0.05346266 133.30295809 -0.05421864 135.0105542 -0.05497371 C137.58425362 -0.056119 140.15795304 -0.05726888 142.73165245 -0.05843295 C166.63711064 -0.0691267 190.54256416 -0.07387485 214.4480238 -0.06596279 C215.79766393 -0.06551703 215.79766393 -0.06551703 217.17456952 -0.06506227 C224.47965692 -0.06261373 231.78474425 -0.06000194 239.08983158 -0.05737813 C267.57124741 -0.0472796 296.05260424 -0.05562821 324.53401184 -0.07887268 C356.5898137 -0.10499246 388.64558006 -0.11778056 420.70139295 -0.11068493 C424.12480469 -0.10996896 427.54821644 -0.10929456 430.97162819 -0.10864449 C431.814456 -0.10847468 432.65728382 -0.10830487 433.52565187 -0.10812991 C446.20273476 -0.10583486 458.87978451 -0.11376585 471.55685997 -0.12693596 C485.98829012 -0.14190263 500.41964303 -0.14261666 514.85107162 -0.12486505 C522.90842897 -0.11535974 530.96560571 -0.11661749 539.02295068 -0.13409974 C545.06794991 -0.14595011 551.11273099 -0.13647775 557.15772501 -0.11927737 C559.58148793 -0.11554555 562.00527312 -0.11835645 564.42901602 -0.12888902 C632.84992202 -0.40475199 695.75108057 27.06601091 744.13923645 75.01268005 C749.92044 80.84028643 755.26830925 86.86668034 760.26423645 93.38768005 C761.19373632 94.56491156 762.12343672 95.74198475 763.05329895 96.91893005 C785.3262181 125.47964602 800.66899196 159.02295117 808.95173645 194.20018005 C809.23730408 195.38704407 809.23730408 195.38704407 809.52864075 196.59788513 C813.73215401 215.3459576 814.70410515 233.97506573 814.6519165 253.1234436 C814.65609875 255.65169313 814.66158111 258.17994079 814.66823632 260.70818502 C814.67961048 266.16481286 814.68186085 271.62132128 814.67568588 277.07795525 C814.66652757 285.19293044 814.67468033 293.30782714 814.68597712 301.42279636 C814.70556965 315.92454979 814.70800569 330.42626732 814.70278192 344.92803083 C814.69821188 357.62242858 814.6988399 370.31681219 814.70462227 383.01120949 C814.70537916 384.71880559 814.70613514 386.4264017 814.70689021 388.1339978 C814.7080355 390.70769722 814.70918539 393.28139664 814.71034946 395.85509605 C814.7210432 419.76055425 814.72579135 443.66600777 814.7178793 467.5714674 C814.71743354 468.92110753 814.71743354 468.92110753 814.71697877 470.29801313 C814.71453023 477.60310052 814.71191844 484.90818786 814.70929464 492.21327519 C814.69919611 520.69469101 814.70754472 549.17604785 814.73078918 577.65745544 C814.75690896 609.7132573 814.76969707 641.76902367 814.76260144 673.82483655 C814.76188546 677.24824829 814.76121106 680.67166004 814.76056099 684.09507179 C814.76039118 684.93789961 814.76022137 685.78072742 814.76004642 686.64909548 C814.75775136 699.32617837 814.76568235 712.00322811 814.77885246 724.68030357 C814.79381913 739.11173373 814.79453316 753.54308663 814.77678155 767.97451522 C814.76727625 776.03187257 814.76853399 784.08904931 814.78601624 792.14639428 C814.79786661 798.19139352 814.78839426 804.23617459 814.77119387 810.28116862 C814.76746205 812.70493153 814.77027295 815.12871672 814.78080552 817.55245962 C815.02634482 878.45233786 793.410422 939.77232404 751.26423645 984.38768005 C750.13394478 985.69562577 749.00880334 987.00804254 747.88923645 988.32518005 C740.09068313 997.23781242 731.58720177 1005.10009235 722.26423645 1012.38768005 C721.00763046 1013.39667563 719.75112651 1014.40579828 718.4947052 1015.4150238 C689.82290509 1038.17101847 656.00415757 1053.70409372 620.45173645 1062.07518005 C619.66049377 1062.26555847 618.8692511 1062.45593689 618.05403137 1062.65208435 C599.30595891 1066.85559762 580.67685077 1067.82754875 561.5284729 1067.77536011 C559.00022337 1067.77954235 556.47197572 1067.78502471 553.94373149 1067.79167992 C548.48710364 1067.80305408 543.03059523 1067.80530445 537.57396126 1067.79912949 C529.45898607 1067.78997117 521.34408936 1067.79812393 513.22912014 1067.80942073 C498.72736672 1067.82901325 484.22564918 1067.83144929 469.72388567 1067.82622553 C457.02948793 1067.82165549 444.33510432 1067.82228351 431.64070702 1067.82806587 C429.93311091 1067.82882276 428.22551481 1067.82957874 426.5179187 1067.83033382 C423.94421928 1067.8314791 421.37051986 1067.83262899 418.79682045 1067.83379306 C394.89136226 1067.84448681 370.98590874 1067.84923495 347.0804491 1067.8413229 C345.73080897 1067.84087714 345.73080897 1067.84087714 344.35390338 1067.84042237 C337.04881598 1067.83797383 329.74372865 1067.83536205 322.43864132 1067.83273824 C293.95722549 1067.82263971 265.47586866 1067.83098832 236.99446106 1067.85423279 C204.9386592 1067.88035257 172.88289284 1067.89314067 140.82707995 1067.88604504 C137.40366821 1067.88532906 133.98025646 1067.88465466 130.55684471 1067.88400459 C129.7140169 1067.88383478 128.87118908 1067.88366497 128.00282103 1067.88349002 C115.32573814 1067.88119497 102.64868839 1067.88912596 89.97161293 1067.90229607 C75.54018278 1067.91726273 61.10882987 1067.91797676 46.67740128 1067.90022516 C38.62004394 1067.89071985 30.56286719 1067.89197759 22.50552222 1067.90945984 C16.46052299 1067.92131022 10.41574191 1067.91183786 4.37074789 1067.89463747 C1.94698497 1067.89090566 -0.47680022 1067.89371656 -2.90054312 1067.90424912 C-63.80302969 1068.14979894 -125.11701362 1046.53235016 -169.73576355 1004.38768005 C-171.02304273 1003.2784014 -172.31464639 1002.17411914 -173.61076355 1001.07518005 C-182.88318973 992.96414867 -191.19612456 984.12480176 -198.73576355 974.38768005 C-199.40792908 973.5381073 -199.40792908 973.5381073 -200.09367371 972.67137146 C-223.06094393 943.59504053 -238.94482151 909.58354617 -247.42326355 873.57518005 C-247.61364197 872.78393738 -247.80402039 871.9926947 -248.00016785 871.17747498 C-252.20368111 852.42940251 -253.17563225 833.80029437 -253.1234436 814.6519165 C-253.12762585 812.12366697 -253.13310821 809.59541932 -253.13976341 807.06717509 C-253.15113757 801.61054725 -253.15338795 796.15403883 -253.14721298 790.69740486 C-253.13805467 782.58242967 -253.14620743 774.46753296 -253.15750422 766.35256374 C-253.17709675 751.85081032 -253.17953279 737.34909278 -253.17430902 722.84732928 C-253.16973898 710.15293153 -253.170367 697.45854792 -253.17614937 684.76415062 C-253.17690626 683.05655452 -253.17766224 681.34895841 -253.17841731 679.64136231 C-253.1795626 677.06766289 -253.18071249 674.49396347 -253.18187656 671.92026406 C-253.1925703 648.01480586 -253.19731845 624.10935234 -253.18940639 600.20389271 C-253.18910922 599.30413262 -253.18881205 598.40437253 -253.18850587 597.47734698 C-253.18605733 590.17225959 -253.18344554 582.86717225 -253.18082174 575.56208492 C-253.17072321 547.0806691 -253.17907182 518.59931226 -253.20231628 490.11790466 C-253.22843606 458.06210281 -253.24122417 426.00633644 -253.23412853 393.95052356 C-253.23341256 390.52711181 -253.23273816 387.10370007 -253.23208809 383.68028831 C-253.23191828 382.8374605 -253.23174847 381.99463268 -253.23157352 381.12626463 C-253.22927846 368.44918174 -253.23720945 355.772132 -253.25037956 343.09505653 C-253.26534623 328.66362638 -253.26606026 314.23227348 -253.24830865 299.80084489 C-253.23880335 291.74348754 -253.24006109 283.6863108 -253.25754334 275.62896583 C-253.26939371 269.58396659 -253.25992136 263.53918552 -253.24272097 257.49419149 C-253.23898915 255.07042858 -253.24180005 252.64664339 -253.25233262 250.22290049 C-253.52819559 181.80199449 -226.0574327 118.90083594 -178.11076355 70.51268005 C-172.28315717 64.73147651 -166.25676327 59.38360726 -159.73576355 54.38768005 C-158.55853205 53.45818018 -157.38145885 52.52847979 -156.20451355 51.59861755 C-127.64379759 29.3256984 -94.10049244 13.98292454 -58.92326355 5.70018005 C-58.13202087 5.50980164 -57.3407782 5.31942322 -56.52555847 5.12327576 C-37.77748601 0.91976249 -19.14837787 -0.05218864 0 0 Z " fill="#2EC867" transform="translate(252.7357635498047,-0.3876800537109375)"/>
<path d="M0 0 C2.4363694 1.30984423 4.34624769 2.51904266 6.5 4.1875 C7.09675537 4.6323877 7.69351074 5.07727539 8.30834961 5.53564453 C19.51507501 14.0300535 29.83981129 23.64714609 40.09985352 33.24316406 C41.54397744 34.57837102 42.99971838 35.90102607 44.46069336 37.21777344 C52.8639181 44.819632 60.92584233 52.73966489 68.93725586 60.75195312 C71.18909428 63.00159272 73.44884639 65.24307761 75.70898438 67.484375 C82.56840087 74.317766 89.25858917 81.10726427 95.21948242 88.75195312 C97.08645737 91.1091594 99.07329669 93.30282767 101.125 95.5 C111.75954281 107.37310402 111.75954281 107.37310402 112.1875 113.828125 C112.125625 114.54484375 112.06375 115.2615625 112 116 C106.87651555 118.94310068 101.21339147 119.00709924 95.4375 119.625 C94.23633545 119.75688721 93.0351709 119.88877441 91.79760742 120.0246582 C81.83017155 121.05187979 72.00761157 121.32911755 62 121 C62.02320313 121.56203125 62.04640625 122.1240625 62.0703125 122.703125 C62.18180899 127.8956758 61.94430192 132.95946585 61.35511303 138.12161827 C59.66194261 153.04230333 59.08737561 168.02785895 58.48046875 183.0234375 C58.44886776 183.79124904 58.41726676 184.55906058 58.38470817 185.35013914 C56.24792855 237.41241726 55.9296112 289.52851125 55.3125 341.625 C54.879375 376.72875 54.44625 411.8325 54 448 C133.53 448 213.06 448 295 448 C294.87625 425.065 294.7525 402.13 294.625 378.5 C294.59100098 371.42884766 294.55700195 364.35769531 294.52197266 357.07226562 C294.4886414 351.1835653 294.45415365 345.29490401 294.4140625 339.40625 C294.40882639 338.62854571 294.40359028 337.85084141 294.39819551 337.04957032 C294.20221262 308.59903066 293.59280218 280.17099524 292.70706177 251.73388672 C292.68506739 251.02754556 292.66307302 250.32120439 292.64041215 249.59345895 C292.61871215 248.89693914 292.59701215 248.20041933 292.57465458 247.48279285 C292.54259881 246.453095 292.54259881 246.453095 292.50989544 245.40259516 C292.46763579 244.04559786 292.42527406 242.68860373 292.38280571 241.33161294 C290.7386842 188.44183579 290.7386842 188.44183579 295 183 C297.97057138 181.1653929 300.22730348 180.74563224 303.69259644 180.72584534 C304.63180939 180.71587021 305.57102234 180.70589508 306.53869629 180.69561768 C307.56217163 180.694953 308.58564697 180.69428833 309.64013672 180.69360352 C310.72348297 180.68528 311.80682922 180.67695648 312.92300415 180.66838074 C316.50860169 180.64426123 320.09401741 180.63550641 323.6796875 180.62890625 C326.17066503 180.6199419 328.661642 180.61082009 331.15261841 180.60154724 C336.37633575 180.58504971 341.59998893 180.57735563 346.82373047 180.57446289 C352.18784185 180.57122972 357.5515454 180.55008951 362.91552734 180.51293945 C369.39113259 180.46876104 375.86635352 180.44899939 382.34210587 180.44773674 C384.81007779 180.44352849 387.27804992 180.43107016 389.74593735 180.41021919 C393.19810105 180.38337263 396.64885953 180.38811133 400.10107422 180.40063477 C401.1205011 180.38580048 402.13992798 180.37096619 403.19024658 180.35568237 C407.70837071 180.40237044 410.98691459 180.48203884 414.61868286 183.34996033 C417.55364659 186.6161235 418.12468872 188.82877196 418.12939453 193.06787109 C418.13405479 194.30216858 418.13405479 194.30216858 418.1388092 195.56140137 C418.13683029 196.45637329 418.13485138 197.35134521 418.1328125 198.2734375 C418.13485939 199.67946228 418.13485939 199.67946228 418.13694763 201.1138916 C418.13898985 204.20096261 418.13260273 207.28793855 418.125 210.375 C418.12378143 211.43962463 418.12256287 212.50424927 418.12130737 213.60113525 C418.10147775 228.40845375 417.90439533 243.19736655 417.43190002 257.99674988 C417.00669119 271.48149154 416.75865373 284.96769343 416.53125 298.45703125 C416.48845518 300.9636791 416.4456541 303.47032684 416.40284729 305.97697449 C416.30111966 311.96215141 416.20097618 317.94735326 416.10146445 323.9325673 C416.02437548 328.56102674 415.94555054 333.18945425 415.86593628 337.81787109 C415.52292044 357.81561493 415.21282977 377.81370866 414.9375 397.8125 C414.92648821 398.61186666 414.91547642 399.41123333 414.90413094 400.23482323 C413.99373249 466.66426948 413.77737212 533.09295213 413.75505596 599.52810448 C413.75234218 607.27381995 413.7468253 615.01952572 413.73860437 622.76523727 C413.63338951 698.70447437 413.63338951 698.70447437 415.3012085 774.62042236 C415.39163943 777.29739075 415.48156551 779.97437487 415.57128906 782.65136719 C415.61353985 783.90882877 415.65579063 785.16629036 415.69932175 786.46185684 C416.14965159 800.97300124 416.09330087 815.48372962 416 830 C416.71784196 830.02981177 417.43568392 830.05962355 418.17527866 830.09033871 C419.11860019 830.12956731 420.06192171 830.16879591 421.03382874 830.20921326 C421.96823319 830.24804847 422.90263765 830.28688368 423.8653574 830.32689571 C427.92615507 830.49737107 431.98625014 830.68224435 436.04638672 830.86767578 C437.84211244 830.94812572 439.63798565 831.02546823 441.43408203 831.09716797 C450.96179172 831.4777603 459.75147169 832.70231875 469 835 C470.08605754 837.70561703 470.09084823 838.77340556 468.98828125 841.5234375 C463.88279875 850.21108838 457.72776866 857.53677058 451 865 C450.18917969 865.91007813 449.37835937 866.82015625 448.54296875 867.7578125 C447.1173394 869.35072235 445.6856929 870.93828056 444.24633789 872.51879883 C442.89479381 874.01165205 441.55218351 875.51276839 440.22753906 877.02954102 C433.1052541 885.13594633 425.44428853 892.70670062 417.80688477 900.32348633 C415.43585437 902.6891419 413.07023578 905.06011514 410.70507812 907.43164062 C409.17740396 908.95865417 407.64941972 910.48535757 406.12109375 912.01171875 C405.42503525 912.70980148 404.72897675 913.40788422 404.01182556 914.12712097 C400.04247107 918.07783063 395.97362117 921.85451444 391.72770691 925.50697327 C389.38794856 927.52891446 387.13646919 929.64123452 384.875 931.75 C380.61052824 935.63976922 376.22498627 939.30802829 371.6875 942.875 C371.11306152 943.32713867 370.53862305 943.77927734 369.94677734 944.24511719 C368.31149549 945.51600271 366.6592926 946.76069851 365 948 C363.99582031 948.76570312 362.99164062 949.53140625 361.95703125 950.3203125 C358.54031185 952.26111744 356.86426255 952.6090692 353 952 C350.39453125 950.56640625 350.39453125 950.56640625 347.8125 948.5625 C346.85988281 947.82902344 345.90726563 947.09554687 344.92578125 946.33984375 C343.96027344 945.56769531 342.99476563 944.79554688 342 944 C340.62908203 942.91912109 340.62908203 942.91912109 339.23046875 941.81640625 C333.5617628 937.26684396 328.13913297 932.4862286 322.80078125 927.5546875 C320.6070503 925.55371115 318.3927762 923.59217682 316.15234375 921.64453125 C305.14997103 912.04377581 294.71274762 901.80614835 284.375 891.5 C283.54645508 890.67604736 282.71791016 889.85209473 281.86425781 889.00317383 C277.60663922 884.73474251 273.51216261 880.38986633 269.58203125 875.81835938 C268.13013634 874.14957646 266.64192603 872.53582057 265.11328125 870.9375 C241 845.70790244 241 845.70790244 241 837.3125 C242 835 242 835 244.1875 833.75 C251.31729037 831.84872257 258.60831933 831.48264567 265.9375 830.9375 C267.07251953 830.84662109 268.20753906 830.75574219 269.37695312 830.66210938 C275.57883727 830.19688061 281.72697626 829.95267347 287.94750977 829.97485352 C288.63063484 829.97666878 289.31375992 829.97848404 290.01758575 829.98035431 C291.67839682 829.98503239 293.33920044 829.9922457 295 830 C294.99861731 828.86925741 294.99861731 828.86925741 294.99720669 827.71567154 C294.97474761 809.04310238 294.95839768 790.37053604 294.94818783 771.69795609 C294.9431144 762.66663362 294.93622405 753.63532046 294.92456055 744.60400391 C294.8810859 710.26727847 294.85765539 675.9410866 295.50390625 641.609375 C296.0160069 612.0768934 296 582.53692124 296 553 C216.47 553 136.94 553 55 553 C55.433125 589.01125 55.433125 589.01125 55.875 625.75 C56.00430908 636.97402832 56.00430908 636.97402832 56.13623047 648.42480469 C56.21079003 654.50720259 56.28631723 660.5895613 56.3671875 666.671875 C56.38293489 667.86209188 56.38293489 667.86209188 56.39900041 669.07635355 C56.72187722 693.21531232 57.34330418 717.30439051 58.6800909 741.41173363 C59.14077718 750.06015895 59.2940786 758.71642645 59.4375 767.375 C59.45811524 768.48956385 59.45811524 768.48956385 59.47914696 769.62664413 C59.69370685 781.99074377 59.69370685 781.99074377 56.78515625 785.7890625 C51.06209351 790.33219505 46.03973149 790.29315186 38.99658203 790.2746582 C37.99272461 790.27976913 36.98886719 790.28488007 35.95458984 790.29014587 C32.6389366 790.30403611 29.32349137 790.30308541 26.0078125 790.30078125 C23.70002159 790.30466867 21.3922314 790.30900344 19.08444214 790.31376648 C14.24751466 790.32122761 9.41066017 790.32093829 4.57373047 790.31567383 C-1.61909348 790.30988139 -7.81161815 790.3268055 -14.00439262 790.3500185 C-18.77082053 790.36476412 -23.53717652 790.36562636 -28.3036232 790.36250877 C-30.5865348 790.36302163 -32.86945047 790.3682527 -35.15233994 790.37832069 C-38.34768761 790.39068261 -41.54245431 790.38389431 -44.73779297 790.37231445 C-45.67724762 790.37995819 -46.61670227 790.38760193 -47.58462524 790.39547729 C-53.15710764 790.35093197 -57.07673535 789.67358228 -62 787 C-68.31557406 780.35202731 -67.1970906 773.20990552 -67.1875 764.5625 C-67.18789276 763.81280945 -67.18828552 763.0631189 -67.18869019 762.29071045 C-67.17841707 745.50268512 -66.52068311 728.74128233 -65.79956055 711.97094727 C-64.45253973 680.52208482 -63.82002653 649.06315292 -63.47503424 617.58903265 C-63.44459829 614.81778215 -63.41326561 612.04654267 -63.38187027 609.27530289 C-62.91958737 568.00812188 -62.8454479 526.74258175 -62.87143064 485.47320485 C-62.87521451 478.76924085 -62.87382323 472.0652916 -62.86962891 465.36132812 C-62.84572633 426.05310961 -62.90697924 386.74896212 -63.4139123 347.44351816 C-63.4445039 345.0705352 -63.47433599 342.6975435 -63.50414658 340.32455063 C-63.72777388 322.8090156 -64.08285988 305.30226867 -64.64784431 287.79420662 C-65.08736469 274.00964565 -65.27580512 260.22441664 -65.4458313 246.43429565 C-65.53862555 239.0016709 -65.64049433 231.56917177 -65.74609375 224.13671875 C-65.76144826 223.05249099 -65.76144826 223.05249099 -65.77711296 221.94635963 C-65.93511079 210.93921014 -66.19089417 199.93938146 -66.5625 188.9375 C-67.31516194 166.30136805 -67.08995978 143.64538664 -67 121 C-67.66975357 121.00425491 -68.33950714 121.00850983 -69.02955627 121.01289368 C-72.12516639 121.02999944 -75.22076649 121.04042109 -78.31640625 121.05078125 C-79.36944946 121.05758911 -80.42249268 121.06439697 -81.50744629 121.07141113 C-94.66782462 121.10430575 -107.58226712 120.62426892 -120 116 C-117.82534802 95.81100122 -87.15875022 71.98824235 -73.43505859 58.3046875 C-71.23547928 56.11051498 -69.04135993 53.91098277 -66.84765625 51.7109375 C-65.4248 50.28874144 -64.00163391 48.86685529 -62.578125 47.4453125 C-61.93522522 46.80038849 -61.29232544 46.15546448 -60.62994385 45.49099731 C-56.81157594 41.69200036 -52.88269934 38.07527917 -48.79981995 34.56170654 C-46.02716345 32.15586823 -43.36473662 29.63575442 -40.6875 27.125 C-10.3311558 -1.07435339 -10.3311558 -1.07435339 0 0 Z " fill="#FEFEFE" transform="translate(355,68)"/>
<path d="M0 0 C79.53 0 159.06 0 241 0 C241 3.96 241 7.92 241 12 C240.67 12 240.34 12 240 12 C239.67 8.7 239.34 5.4 239 2 C160.79 2 82.58 2 2 2 C2 41.93 2 81.86 2 123 C1.67 123 1.34 123 1 123 C-0.05097136 82.01211679 0 41.00135499 0 0 Z " fill="#30B964" transform="translate(410,621)"/>
<path d="M0 0 C2.03681935 3.05522903 2.24974098 3.63733867 2.24291992 7.06787109 C2.24595123 7.89073608 2.24898254 8.71360107 2.25210571 9.56140137 C2.24496552 10.45637329 2.23782532 11.35134521 2.23046875 12.2734375 C2.2304184 13.21078735 2.23036804 14.14813721 2.23031616 15.1138916 C2.22667489 18.20105729 2.20764599 21.28790097 2.1875 24.375 C2.17995476 26.53662006 2.17271494 28.69824121 2.16577148 30.85986328 C2.10604737 44.58027793 1.86873133 58.28872763 1.43241882 72.00196838 C1.00941541 85.43552957 0.7560869 98.8704925 0.52734375 112.30859375 C0.50635117 113.52647394 0.48535858 114.74435413 0.46372986 115.99913979 C-0.08486037 147.91454729 -0.54990763 179.83108813 -0.96800327 211.74845409 C-1.00024023 214.20581197 -1.03269492 216.66316691 -1.06517792 219.12052155 C-2.29958054 312.74261095 -2.64571716 406.37117742 -3 500 C-3.33 500 -3.66 500 -4 500 C-4.02289607 465.2472167 -4.04051334 430.49443512 -4.05106533 395.74164591 C-4.05231601 391.63741562 -4.05361034 387.53318534 -4.05493164 383.42895508 C-4.05519395 382.61188742 -4.05545626 381.79481977 -4.05572652 380.95299249 C-4.06007611 367.72855714 -4.06795976 354.50412614 -4.0771528 341.27969337 C-4.08650908 327.70707124 -4.0920598 314.13445139 -4.09408849 300.56182617 C-4.09545961 292.18891122 -4.09978798 283.81600857 -4.10791647 275.44309741 C-4.11320828 269.69906011 -4.11479875 263.95502916 -4.11350138 258.2109896 C-4.11286181 254.89855419 -4.11438159 251.58614474 -4.11920547 248.27371216 C-4.12418602 244.67725443 -4.12298215 241.08084922 -4.12025452 237.48439026 C-4.12316736 236.444486 -4.1260802 235.40458174 -4.12908131 234.33316523 C-4.11845139 229.14182225 -3.87338133 224.09848812 -3.22834009 218.94734401 C-2.93272913 216.42629643 -2.8635457 213.93530991 -2.84851074 211.39810181 C-2.84016708 210.38351395 -2.83182343 209.36892609 -2.82322693 208.32359314 C-2.81904251 207.24179276 -2.81485809 206.15999237 -2.81054688 205.04541016 C-2.80225357 203.8815831 -2.79396027 202.71775604 -2.78541565 201.5186615 C-2.76809015 199.00443463 -2.75290329 196.49019228 -2.73963928 193.9759407 C-2.71848955 189.9899765 -2.69160964 186.00407321 -2.66296387 182.01815796 C-2.60313175 173.55380466 -2.55117626 165.08940938 -2.5 156.625 C-2.44474014 147.49061315 -2.3880356 138.35624745 -2.32245111 129.221928 C-2.28983111 124.63589714 -2.26433978 120.04985731 -2.2401123 115.46377563 C-2.22349622 113.04697485 -2.20662325 110.63017582 -2.18945312 108.21337891 C-2.18526871 107.13562698 -2.18108429 106.05787506 -2.17677307 104.94746399 C-2.12904925 99.11199553 -1.80872637 93.38536969 -1.22919655 87.5794487 C-0.88466687 83.70200539 -0.82432663 79.83918465 -0.79467773 75.94848633 C-0.78477814 75.11782654 -0.77487854 74.28716675 -0.76467896 73.43133545 C-0.73351566 70.73159469 -0.70848868 68.03183643 -0.68359375 65.33203125 C-0.66298501 63.44202765 -0.64198763 61.55202826 -0.62062073 59.66203308 C-0.56580433 54.72202997 -0.51621923 49.78198809 -0.46777344 44.84191895 C-0.41726044 39.78715627 -0.36173098 34.73244887 -0.30664062 29.67773438 C-0.19955471 19.78520364 -0.09800271 9.8926246 0 0 Z " fill="#C7F6DB" transform="translate(771,254)"/>
<path d="M0 0 C30.81234653 -0.02278988 61.62469114 -0.04049792 92.43704408 -0.05106533 C96.07090375 -0.05231611 99.7047634 -0.05361042 103.33862305 -0.05493164 C104.06208951 -0.05519395 104.78555598 -0.05545626 105.53094567 -0.05572652 C117.26055168 -0.06008332 128.99015282 -0.06797092 140.71975594 -0.0771528 C152.74648244 -0.08648906 164.77320638 -0.09205555 176.79993635 -0.09408849 C183.55891439 -0.09534006 190.31788223 -0.09836183 197.07685661 -0.10573006 C203.43048956 -0.11248603 209.7841068 -0.11461783 216.137743 -0.11310768 C218.47714447 -0.1133842 220.81654644 -0.11539182 223.15594482 -0.11920547 C226.3348128 -0.12413612 229.51362043 -0.12300063 232.69248962 -0.12025452 C233.63118627 -0.12316736 234.56988292 -0.1260802 235.53702492 -0.12908131 C241.88587879 -0.11412121 241.88587879 -0.11412121 243 1 C243.09939899 2.77777514 243.12799578 4.55953666 243.12939453 6.34008789 C243.13250137 7.49730347 243.13560822 8.65451904 243.1388092 9.84680176 C243.13683029 11.12583374 243.13485138 12.40486572 243.1328125 13.72265625 C243.13387127 15.07019072 243.13525697 16.41772496 243.13694763 17.76525879 C243.13978051 21.43083926 243.1353075 25.09637689 243.12877274 28.76195145 C243.12499949 31.06280827 243.12293288 33.363661 243.12130737 35.66452026 C243.08242406 82.45209834 242.21134473 129.22885047 241 176 C240.67 176 240.34 176 240 176 C239.87717384 145.95020503 239.97401139 115.91764398 240.64428711 85.87402344 C241.20859811 57.90592511 241 29.9963212 241 2 C161.47 2 81.94 2 0 2 C0 1.34 0 0.68 0 0 Z " fill="#C3F9DA" transform="translate(410,619)"/>
<path d="M0 0 C1.41749039 -0.00845947 1.41749039 -0.00845947 2.86361694 -0.01708984 C3.89337646 -0.01304138 4.92313599 -0.00899292 5.98410034 -0.00482178 C7.07387177 -0.00832642 8.16364319 -0.01183105 9.28643799 -0.01544189 C12.89128982 -0.02425014 16.49594571 -0.01841396 20.10079956 -0.01165771 C22.60135943 -0.01300443 25.10191905 -0.01494501 27.60247803 -0.01745605 C32.84298712 -0.02040593 38.08344509 -0.01630363 43.32394409 -0.0067749 C49.38612698 0.00412045 55.44817546 0.00057506 61.51035511 -0.01042771 C67.34095306 -0.02058716 73.1714998 -0.01952518 79.0021019 -0.01366425 C81.48451633 -0.01232659 83.96693418 -0.01397951 86.44934464 -0.01862335 C89.91154442 -0.02367931 93.37348263 -0.01599186 96.83566284 -0.00482178 C97.86947083 -0.00887024 98.90327881 -0.0129187 99.96841431 -0.01708984 C100.90776825 -0.0114502 101.84712219 -0.00581055 102.81494141 0 C104.04327289 0.00113108 104.04327289 0.00113108 105.29641914 0.002285 C107.28048706 0.25396729 107.28048706 0.25396729 109.28048706 2.25396729 C108.42295617 2.24705384 108.42295617 2.24705384 107.54810143 2.24000072 C93.62629028 2.12949367 79.70455615 2.04711679 65.78240013 1.99490643 C59.04966844 1.96914406 52.31722983 1.93403198 45.58468628 1.87677002 C39.08784713 1.82153921 32.59119815 1.79254775 26.09413528 1.77958107 C23.61497835 1.77034002 21.13583814 1.75229446 18.65681076 1.725317 C15.18513685 1.68903862 11.71472226 1.6840217 8.2428894 1.68634033 C7.21717834 1.66836395 6.19146729 1.65038757 5.13467407 1.63186646 C0.72900335 1.66372058 -2.71967876 1.73278747 -6.36109924 4.39195251 C-9.15873144 7.78697379 -9.45691668 9.26339716 -9.41653442 13.61383057 C-9.41930893 14.87929718 -9.42208344 16.14476379 -9.42494202 17.44857788 C-9.39759084 18.82382719 -9.36945918 20.19906116 -9.34060669 21.57427979 C-9.33193861 22.99808476 -9.32580067 24.42190717 -9.32206726 25.84573364 C-9.3048586 29.59366067 -9.25082259 33.3402129 -9.18978882 37.08764648 C-9.14641341 40.11996721 -9.12867473 43.15216989 -9.11251736 46.18474007 C-9.07831526 52.49598925 -9.0230351 58.80710614 -8.92825317 65.11773682 C-8.91237656 66.23294708 -8.89649994 67.34815735 -8.88014221 68.49716187 C-8.75636332 71.39210876 -8.52137375 74.19056873 -8.21356201 77.06626892 C-7.45039231 85.15973703 -7.58818578 93.27278676 -7.60598755 101.39337158 C-7.60627007 103.20777891 -7.60611043 105.02218636 -7.60554504 106.83659363 C-7.60525959 111.73249046 -7.61111546 116.62836251 -7.618119 121.52425361 C-7.62439461 126.65183367 -7.62495966 131.77941437 -7.62614441 136.90699768 C-7.62924536 146.60352864 -7.63744201 156.30004825 -7.6474939 165.99657422 C-7.65869352 177.04135766 -7.66417517 188.08614165 -7.66918933 199.13092935 C-7.67962571 221.83861494 -7.69720111 244.54629048 -7.71951294 267.25396729 C-8.04951294 267.25396729 -8.37951294 267.25396729 -8.71951294 267.25396729 C-8.72282309 266.557584 -8.72613323 265.86120071 -8.72954369 265.1437149 C-8.81259473 247.79376278 -8.90518017 230.44388412 -9.00704002 213.09403229 C-9.05610333 204.70204765 -9.10246154 196.31006806 -9.14138794 187.91802979 C-9.32392272 148.92458651 -9.79844212 109.96417994 -11.01245117 70.987854 C-11.03444555 70.28151284 -11.05643992 69.57517168 -11.07910079 68.84742624 C-11.10080079 68.15090642 -11.12250079 67.45438661 -11.14485836 66.73676014 C-11.16622887 66.0502949 -11.18759939 65.36382966 -11.2096175 64.65656245 C-11.25187715 63.29956515 -11.29423888 61.94257102 -11.33670723 60.58558023 C-12.98082874 7.69580308 -12.98082874 7.69580308 -8.71951294 2.25396729 C-5.73646565 0.40786966 -3.48128349 0.0032027 0 0 Z " fill="#D8FAE8" transform="translate(658.7195129394531,248.74603271484375)"/>
<path d="M0 0 C0.33 0 0.66 0 1 0 C1 30.36 1 60.72 1 92 C-3.51595556 87.48404444 -2.18901831 80.74876074 -2.18969727 74.78115845 C-2.18897217 74.04900116 -2.18824707 73.31684387 -2.1875 72.5625 C-2.1882251 71.8251059 -2.1889502 71.08771179 -2.18969727 70.32797241 C-2.18720732 46.87179044 -1.023191 23.42914103 0 0 Z " fill="#C9F6DD" transform="translate(290,760)"/>
<path d="M0 0 C0.33 0.66 0.66 1.32 1 2 C-4.62694684 8.68956166 -10.73234394 14.85070826 -16.9375 21 C-17.9175531 21.97502386 -18.8973724 22.9502828 -19.87695312 23.92578125 C-22.24902313 26.28616618 -24.6234086 28.64416905 -27 31 C-27.99 30.67 -28.98 30.34 -30 30 C-20.1 20.1 -10.2 10.2 0 0 Z " fill="#E8FEF4" transform="translate(295,113)"/>
<path d="M0 0 C-1.423125 0.928125 -1.423125 0.928125 -2.875 1.875 C-6.71256369 4.22905542 -6.71256369 4.22905542 -8.39428711 8.06762695 C-8.99669787 16.10202661 -9.31725775 24.13470955 -9.5625 32.1875 C-9.60582646 33.53451468 -9.64944448 34.88152001 -9.69335938 36.22851562 C-9.79842652 39.48559727 -9.90057834 42.74274197 -10 46 C-10.33 46 -10.66 46 -11 46 C-11.07427668 40.3949675 -11.12866208 34.79022289 -11.16479492 29.18481445 C-11.17986128 27.27883919 -11.20031824 25.37289848 -11.22631836 23.46704102 C-11.26279642 20.72403424 -11.27974792 17.98148672 -11.29296875 15.23828125 C-11.30845261 14.38913651 -11.32393646 13.53999176 -11.33988953 12.66511536 C-11.34122762 7.9382176 -11.06754186 4.84412291 -8 1 C-5.0438846 -1.09788835 -3.38915747 -1.21041338 0 0 Z " fill="#C8FBDF" transform="translate(658,250)"/>
<path d="M0 0 C1.5 1.1875 1.5 1.1875 3 3 C3.1875 5.6875 3.1875 5.6875 3 8 C-0.78978301 10.36737102 -4.84273508 10.66497162 -9.1875 11.125 C-10.32336548 11.25237549 -10.32336548 11.25237549 -11.48217773 11.38232422 C-16.68220936 11.93686037 -21.76818793 12.19024771 -27 12 C-27 11.67 -27 11.34 -27 11 C-19.87090651 9.69805562 -12.82729747 8.72249674 -5.59375 8.24609375 C-3.29026961 8.02754064 -1.21995479 7.63352483 1 7 C0.67 4.69 0.34 2.38 0 0 Z " fill="#E3FEF1" transform="translate(464,176)"/>
<path d="M0 0 C8.26747851 -0.23658921 15.92046224 0.18655665 24 2 C24 2.33 24 2.66 24 3 C15.7574683 3.26305952 8.08808989 2.60614551 0 1 C0 0.67 0 0.34 0 0 Z " fill="#D1F9E3" transform="translate(797,900)"/>
<path d="M0 0 C1.5 1.1875 1.5 1.1875 3 3 C3.1875 5.6875 3.1875 5.6875 3 8 C1.1875 9.0625 1.1875 9.0625 -1 10 C-1.99 9.67 -2.98 9.34 -4 9 C-2.35 8.34 -0.7 7.68 1 7 C0.67 4.69 0.34 2.38 0 0 Z " fill="#D6FCE9" transform="translate(464,176)"/>
<path d="M0 0 C-4.5 3 -4.5 3 -9 6 C-8.75 3.625 -8.75 3.625 -8 1 C-5.12800349 -1.17875597 -3.33791789 -1.19211353 0 0 Z " fill="#D8FCE9" transform="translate(658,250)"/>
</svg>
